<svg width="195" height="37" fill="none" xmlns="http://www.w3.org/2000/svg"><path d="M41.645 22.986h2.841c.065.573.368 1.039.909 1.397.546.351 1.214.527 2.002.527.78 0 1.416-.166 1.904-.498.495-.338.742-.768.742-1.289 0-.456-.182-.824-.547-1.104-.364-.28-.973-.514-1.826-.703l-1.836-.4c-2.585-.553-3.877-1.865-3.877-3.936 0-1.289.501-2.33 1.504-3.125 1.01-.794 2.305-1.19 3.887-1.19 1.627 0 2.926.386 3.896 1.161.97.768 1.468 1.794 1.494 3.076h-2.763a1.796 1.796 0 00-.791-1.396c-.476-.345-1.084-.518-1.827-.518-.729 0-1.318.16-1.767.479-.443.319-.664.739-.664 1.26 0 .43.179.778.537 1.044.364.267.954.495 1.767.684l1.71.361c1.412.3 2.44.769 3.085 1.407.645.631.967 1.484.967 2.558 0 1.367-.514 2.455-1.543 3.262-1.028.8-2.418 1.201-4.17 1.201-1.699 0-3.053-.378-4.062-1.133-1.003-.761-1.527-1.803-1.572-3.125zm13.681-8.867h2.852v2.412h1.933v2.149h-1.933v5.01c0 .787.41 1.181 1.23 1.181.267 0 .498-.016.694-.049v2.1c-.332.078-.785.117-1.358.117-1.23 0-2.11-.221-2.637-.664-.52-.443-.78-1.175-.78-2.197V18.68h-1.475v-2.15h1.474v-2.41zM65.62 25.105c.632 0 1.165-.182 1.602-.546.442-.372.664-.837.664-1.397V22.4l-2.207.137c-.534.04-.947.173-1.24.4-.287.228-.43.528-.43.899 0 .39.146.7.44.928.292.227.683.341 1.171.341zm-.937 2.061c-1.01 0-1.846-.296-2.51-.889-.664-.592-.996-1.354-.996-2.285 0-.95.351-1.696 1.054-2.236.704-.54 1.71-.85 3.018-.928l2.637-.156v-.694c0-.481-.16-.859-.479-1.132-.312-.274-.739-.41-1.279-.41-.52 0-.947.117-1.28.351a1.44 1.44 0 00-.595.947h-2.607c.052-1.028.491-1.855 1.318-2.48.827-.632 1.924-.947 3.29-.947 1.342 0 2.416.319 3.224.957.807.638 1.21 1.484 1.21 2.539V27h-2.753v-1.602h-.059c-.287.547-.723.98-1.309 1.3a3.945 3.945 0 01-1.884.468zm7.85-.166V16.531h2.754v1.885h.059c.182-.664.488-1.172.918-1.523.43-.352.953-.528 1.572-.528.3 0 .57.036.81.108v2.51c-.266-.111-.612-.167-1.035-.167-.703 0-1.25.206-1.64.616-.39.41-.586.983-.586 1.718V27h-2.852zm8.047-12.88h2.852v2.411h1.933v2.149h-1.933v5.01c0 .787.41 1.181 1.23 1.181.267 0 .498-.016.694-.049v2.1c-.333.078-.785.117-1.358.117-1.23 0-2.11-.221-2.637-.664-.52-.443-.78-1.175-.78-2.197V18.68h-1.475v-2.15h1.474v-2.41zm16.016 2.411V27h-2.754v-1.885h-.059c-.547 1.387-1.592 2.08-3.135 2.08-1.145 0-2.06-.348-2.744-1.045-.683-.703-1.025-1.66-1.025-2.87v-6.75h2.852v6.153c0 .696.166 1.227.498 1.591.338.365.823.547 1.455.547.631 0 1.132-.208 1.504-.625.37-.416.556-.973.556-1.67V16.53h2.852zm7.968-.166c1.329 0 2.374.479 3.135 1.436.768.957 1.153 2.278 1.153 3.965 0 1.68-.378 3-1.133 3.965-.755.956-1.791 1.435-3.106 1.435-.748 0-1.409-.17-1.982-.508a3.22 3.22 0 01-1.27-1.416h-.058v5.176h-2.852V16.531h2.813v1.826h.058a3.322 3.322 0 011.27-1.464c.566-.352 1.224-.528 1.972-.528zm-.957 8.506c.71 0 1.273-.28 1.69-.84.423-.56.635-1.315.635-2.265 0-.95-.212-1.706-.635-2.266-.417-.566-.98-.85-1.69-.85-.696 0-1.256.287-1.679.86-.423.566-.635 1.318-.635 2.256 0 .944.208 1.699.625 2.265.423.56.986.84 1.689.84zm16.075-.312V27h-9.112V12.908h2.95v11.65h6.162zm5.547.546c.631 0 1.165-.182 1.601-.546.443-.372.664-.837.664-1.397V22.4l-2.207.137c-.534.04-.947.173-1.24.4-.287.228-.43.528-.43.899 0 .39.147.7.44.928.293.227.683.341 1.172.341zm-.938 2.061c-1.009 0-1.846-.296-2.51-.889-.664-.592-.996-1.354-.996-2.285 0-.95.352-1.696 1.055-2.236.703-.54 1.709-.85 3.017-.928l2.637-.156v-.694c0-.481-.159-.859-.478-1.132-.313-.274-.739-.41-1.28-.41-.521 0-.947.117-1.279.351-.325.235-.524.55-.596.947h-2.607c.052-1.028.491-1.855 1.318-2.48.827-.632 1.924-.947 3.291-.947 1.341 0 2.416.319 3.223.957.807.638 1.211 1.484 1.211 2.539V27h-2.754v-1.602h-.059c-.286.547-.722.98-1.308 1.3a3.945 3.945 0 01-1.885.468zm7.852-.166V16.531h2.753v1.866h.059c.287-.665.703-1.172 1.25-1.524.553-.358 1.227-.537 2.022-.537 1.158 0 2.054.345 2.685 1.035.632.69.947 1.65.947 2.881V27h-2.851v-6.152c0-.69-.163-1.221-.488-1.592-.326-.371-.805-.557-1.436-.557-.632 0-1.139.212-1.523.635-.378.423-.567.977-.567 1.66V27h-2.851zm15.41.166c-1.309 0-2.347-.485-3.115-1.455-.769-.97-1.153-2.292-1.153-3.965 0-1.66.384-2.972 1.153-3.935.774-.964 1.819-1.446 3.134-1.446.742 0 1.393.18 1.953.537.567.358.98.834 1.241 1.426h.058v-5.42h2.852V27h-2.813v-1.797h-.049a3.132 3.132 0 01-1.259 1.426c-.58.358-1.247.537-2.002.537zm.967-8.516c-.717 0-1.283.28-1.7.84-.41.56-.615 1.319-.615 2.276 0 .963.205 1.722.615 2.275.417.553.983.83 1.7.83.709 0 1.272-.277 1.689-.83.423-.56.635-1.318.635-2.275 0-.95-.212-1.706-.635-2.266-.417-.566-.98-.85-1.689-.85zm7.109 8.35V16.531h2.851V27h-2.851zm2.51-12.05a1.493 1.493 0 01-1.084.429 1.49 1.49 0 01-1.084-.43 1.407 1.407 0 01-.44-1.045c0-.416.147-.765.44-1.045a1.49 1.49 0 011.084-.43c.429 0 .791.144 1.084.43.293.28.439.629.439 1.045 0 .41-.146.759-.439 1.045zM160.385 27V16.531h2.754v1.866h.058c.287-.665.703-1.172 1.25-1.524.554-.358 1.227-.537 2.022-.537 1.159 0 2.054.345 2.685 1.035.632.69.948 1.65.948 2.881V27h-2.852v-6.152c0-.69-.163-1.221-.488-1.592-.326-.371-.804-.557-1.436-.557-.631 0-1.139.212-1.523.635-.378.423-.567.977-.567 1.66V27h-2.851zm16.357-2.227c.716 0 1.283-.267 1.699-.8.424-.54.635-1.283.635-2.227s-.211-1.696-.635-2.256c-.423-.56-.989-.84-1.699-.84-.703 0-1.263.28-1.68.84-.41.554-.615 1.306-.615 2.256 0 .95.205 1.693.615 2.227.411.534.971.8 1.68.8zm-.049 6.172c-1.36 0-2.48-.3-3.359-.898-.872-.593-1.367-1.36-1.484-2.305h2.793c.11.365.358.658.742.88.39.227.853.34 1.386.34.723 0 1.286-.185 1.69-.556.404-.364.605-.856.605-1.474v-1.836h-.058c-.248.566-.661 1.022-1.24 1.367-.58.338-1.244.508-1.993.508-1.289 0-2.321-.469-3.095-1.407-.769-.937-1.153-2.216-1.153-3.837 0-1.66.384-2.97 1.153-3.926.768-.957 1.816-1.436 3.144-1.436.742 0 1.397.18 1.963.537.567.358.99.843 1.27 1.455h.048v-1.826h2.813v10.323c0 1.243-.479 2.236-1.436 2.978-.95.742-2.213 1.113-3.789 1.113z" fill="#0F2137"/><g clip-path="url(#clip0)"><path d="M20.21.54a16.208 16.208 0 00-10.313.671 16.004 16.004 0 00-7.763 6.756 15.757 15.757 0 00-1.993 10.04 15.832 15.832 0 004.601 9.16l17.888-17.7a5.324 5.324 0 001.394-2.393 5.285 5.285 0 000-2.761 5.324 5.324 0 00-1.396-2.392A5.404 5.404 0 0020.211.54z" fill="url(#paint0_linear)"/><path d="M6.789 36.46c3.42.91 7.05.676 10.322-.668a16.007 16.007 0 007.769-6.76 15.76 15.76 0 001.992-10.047 15.835 15.835 0 00-4.612-9.166L4.374 27.534a5.323 5.323 0 00-1.395 2.391 5.284 5.284 0 000 2.762c.245.904.726 1.73 1.394 2.392A5.404 5.404 0 006.79 36.46z" fill="url(#paint1_linear)"/><path style="mix-blend-mode:multiply" d="M22.26 9.82L4.374 27.533a5.323 5.323 0 00-1.395 2.391 5.284 5.284 0 000 2.762c.245.904.726 1.73 1.394 2.392A5.404 5.404 0 006.79 36.46c1.912.505 3.903.657 5.87.448-7.842-7.468 9.6-27.088 9.6-27.088z" fill="url(#paint2_linear)"/><g style="mix-blend-mode:multiply"><path style="mix-blend-mode:multiply" d="M6.46 36.362c-2.539-7.782 12.71-23.453 15.4-26.135L4.374 27.534a5.325 5.325 0 00-1.372 2.31 5.284 5.284 0 00-.065 2.678c.209.884.642 1.7 1.259 2.372a5.396 5.396 0 002.264 1.468z" fill="url(#paint3_linear)"/><path style="mix-blend-mode:multiply" d="M22.201 9.89a.786.786 0 01.06-.058l-.06.058z" fill="url(#paint4_linear)"/></g><path style="mix-blend-mode:screen" d="M23.94 7.364L4.721 27.157 22.63 9.466a5.295 5.295 0 001.311-2.101z" fill="url(#paint5_radial)"/></g><defs><linearGradient id="paint0_linear" x1="16.41" y1="-16.693" x2="10.588" y2="20.665" gradientUnits="userSpaceOnUse"><stop stop-color="#0096D9"/><stop offset="1" stop-color="#00C198"/></linearGradient><linearGradient id="paint1_linear" x1="9.135" y1="13.618" x2="18.505" y2="32.425" gradientUnits="userSpaceOnUse"><stop stop-color="#002DD9"/><stop offset="1" stop-color="#00B2AB"/></linearGradient><linearGradient id="paint2_linear" x1="23.807" y1="-3.424" x2="6.083" y2="38.171" gradientUnits="userSpaceOnUse"><stop stop-color="#3482C0"/><stop offset=".45" stop-color="#96BEDE"/><stop offset=".83" stop-color="#E1EDF6"/><stop offset="1" stop-color="#fff"/></linearGradient><linearGradient id="paint3_linear" x1="1361.37" y1="132.275" x2="-132.261" y2="2238.51" gradientUnits="userSpaceOnUse"><stop stop-color="#3482C0"/><stop offset=".45" stop-color="#96BEDE"/><stop offset=".83" stop-color="#E1EDF6"/><stop offset="1" stop-color="#fff"/></linearGradient><linearGradient id="paint4_linear" x1="25.673" y1="3.268" x2="10.595" y2="32.712" gradientUnits="userSpaceOnUse"><stop stop-color="#569FA1"/><stop offset=".36" stop-color="#97C4C5"/><stop offset=".8" stop-color="#E2EEEF"/><stop offset="1" stop-color="#fff"/></linearGradient><radialGradient id="paint5_radial" cx="0" cy="0" r="1" gradientUnits="userSpaceOnUse" gradientTransform="matrix(27.8184 0 0 27.5367 21.594 32.382)"><stop stop-color="#FF0"/><stop offset="1"/></radialGradient><clipPath id="clip0"><path fill="#fff" d="M0 0h27v37H0z"/></clipPath></defs></svg>